<svg xmlns="http://www.w3.org/2000/svg" data-name="Layer 1" viewBox="0 0 64 80" x="0px" y="0px"><path d="M40,36a3,3,0,0,0,3-3V32h9a2,2,0,0,0,2-2V28a2,2,0,0,0-2-2H35V11a1,1,0,0,0-1-1H30a1,1,0,0,0-1,1V26H12a2,2,0,0,0-2,2v2a2,2,0,0,0,2,2h9v1a3,3,0,0,0,3,3h5V48H27a3,3,0,0,0-3,3v2a1,1,0,0,0,1,1H39a1,1,0,0,0,1-1V51a3,3,0,0,0-3-3H35V36ZM31,12h2V26H31ZM12,28H52v2H12Zm11,5V32H41v1a1,1,0,0,1-1,1H24A1,1,0,0,1,23,33ZM38,51v1H26V51a1,1,0,0,1,1-1H37A1,1,0,0,1,38,51Zm-5-3H31V36h2Z"/><path d="M61,19H57a1,1,0,0,0-1,1V30a1,1,0,0,0,1,1h1v5H45a1,1,0,0,0-1,1v4a1,1,0,0,0,1,1h.82L44,52.84A1,1,0,0,0,45,54h4a1,1,0,0,0,1-.84L51.85,42h2.3L56,53.16A1,1,0,0,0,57,54h4a1,1,0,0,0,1-1.16L60.18,42H61a1,1,0,0,0,1-1V37a1,1,0,0,0-1-1H60V31h1a1,1,0,0,0,1-1V20A1,1,0,0,0,61,19ZM46,38H60v2H46Zm2.15,14h-2l1.67-10h2Zm11.67,0h-2L56.18,42h2ZM60,29H58V21h2Z"/><path d="M3,42h.82L2,52.84A1,1,0,0,0,3,54H7a1,1,0,0,0,1-.84L9.85,42h2.3L14,53.16A1,1,0,0,0,15,54h4a1,1,0,0,0,1-1.16L18.18,42H19a1,1,0,0,0,1-1V37a1,1,0,0,0-1-1H6V31H7a1,1,0,0,0,1-1V20a1,1,0,0,0-1-1H3a1,1,0,0,0-1,1V30a1,1,0,0,0,1,1H4v5H3a1,1,0,0,0-1,1v4A1,1,0,0,0,3,42ZM4,21H6v8H4ZM6.15,52h-2L5.85,42h2Zm11.67,0h-2L14.18,42h2ZM4,38H18v2H4Z"/></svg>