<svg xmlns="http://www.w3.org/2000/svg" data-name="Layer 1" viewBox="0 0 100 125" x="0px" y="0px"><path d="m60.311,48.566h4.365c.432,0,.782-.35.782-.782v-5.599c0-.432-.35-.782-.782-.782h-4.365c-.432,0-.782.35-.782.782v5.599c0,.432.35.782.782.782Zm.782-5.599h2.801v4.034h-2.801v-4.034Zm5.834,5.638h4.728c.432,0,.782-.35.782-.782v-5.599c0-.432-.35-.782-.782-.782h-4.728c-.432,0-.782.35-.782.782v5.599c0,.432.35.782.782.782Zm.782-5.599h3.164v4.034h-3.164v-4.034Zm-7.398-2.568h4.365c.432,0,.782-.35.782-.782v-5.599c0-.432-.35-.782-.782-.782h-4.365c-.432,0-.782.35-.782.782v5.599c0,.432.35.782.782.782Zm.782-5.599h2.801v4.034h-2.801v-4.034Zm5.834,5.638h4.728c.432,0,.782-.35.782-.782v-5.599c0-.432-.35-.782-.782-.782h-4.728c-.432,0-.782.35-.782.782v5.599c0,.432.35.782.782.782Zm.782-5.598h3.164v4.034h-3.164v-4.034Zm-47.527-7.676h16.927c3.305,0,5.893-1.818,5.893-4.138,0-1.735-1.506-3.248-3.768-3.853-.698-2.288-3.432-3.973-6.695-3.973-1.613,0-3.135.419-4.343,1.149-.951-1.526-3.039-2.564-5.527-2.564-3.409,0-6.08,1.948-6.08,4.434,0,.474.103.933.292,1.37-1.596.747-2.592,2.011-2.592,3.438,0,2.32,2.589,4.138,5.893,4.138Zm-1.217-5.968c.593-.118.978-.695.859-1.288-.076-.382-.351-.66-.69-.791-.189-.234-.355-.541-.355-.898,0-1.061,1.598-2.244,3.891-2.244,2.276,0,3.863,1.165,3.886,2.221,0,.026,0,.051.001.078-.001.023-.001.045-.004.068-.063.601.374,1.14.976,1.202.559.057,1.044-.321,1.164-.854.883-.805,2.316-1.3,3.845-1.3,2.487,0,4.586,1.269,4.679,2.829.035.581.517,1.03,1.092,1.03.022,0,.044,0,.066-.002.03-.002.054-.018.083-.022,1.364.306,2.354,1.063,2.354,1.802,0,.92-1.584,1.948-3.703,1.948h-16.927c-2.12,0-3.703-1.029-3.703-1.948,0-.76,1.069-1.547,2.486-1.83Zm69.355,64.33h-5.334v-9.03c0-.605-.49-1.095-1.095-1.095h-.058v-8.888h.058c.605,0,1.095-.49,1.095-1.095v-3.048h3.499c.605,0,1.095-.49,1.095-1.095v-5.333c0-.605-.49-1.095-1.095-1.095h-3.551v-28.435h3.974c.497,0,.932-.335,1.059-.815s-.086-.986-.518-1.232l-21.173-12.015c-.335-.19-.746-.19-1.081,0l-21.173,12.015c-.432.245-.645.751-.518,1.232.127.481.562.815,1.059.815h4.344v15.535l-12.47-7.976c-.36-.23-.82-.23-1.18,0l-18.297,11.704c-.41.262-.597.763-.461,1.23.137.467.565.788,1.051.788h3.003v7.156h-2.443c-.605,0-1.095.49-1.095,1.095v29.583h-5.334c-.605,0-1.095.49-1.095,1.095s.49,1.095,1.095,1.095h76.641c.605,0,1.095-.49,1.095-1.095s-.49-1.095-1.095-1.095ZM19.203,62.409h31.607v23.155h-7.794v-14.244c0-.605-.49-1.095-1.095-1.095h-14.626c-.605,0-1.095.49-1.095,1.095v14.244h-6.997v-23.155Zm40.033,0v23.155h-2.012v-23.155h2.012Zm4.224,23.155h-2.034v-23.155h2.034v23.155Zm-8.426,0h-2.034v-23.155h2.034v23.155Zm-20.787,0v-13.149h.722v13.149h-.722Zm2.286-13.149h4.293v13.149h-4.293v-13.149Zm-8.143,0h4.293v13.149h-4.293v-13.149Zm51.255,3.025h-8.24v-8.888h8.24v8.888Zm1.153-11.077h-10.488c-.605,0-1.095.49-1.095,1.095v11.077c0,.605.49,1.095,1.095,1.095h10.488v7.935h-15.148v-23.155h15.148v1.953Zm-15.062-49.763l17.026,9.661h-34.051l17.025-9.661Zm-14.64,28.521v-16.67h29.65v28.435h-29.65v-7.156h3.047c.486,0,.914-.321,1.051-.788.136-.467-.051-.968-.461-1.23l-3.685-2.357c.018-.078.047-.152.047-.235Zm-15.25-6.89l14.554,9.309h-.398s0,0,0,0h-28.354s0,0,0,0h-.354l14.554-9.309Zm-13.104,11.499h26.164v7.156h-26.164v-7.156Zm-3.538,9.345h66.188v3.144H19.203v-3.144Z"/></svg>