<svg xmlns="http://www.w3.org/2000/svg" xmlns:xlink="http://www.w3.org/1999/xlink" version="1.1" x="0px" y="0px" viewBox="0 0 66 82.5" style="enable-background:new 0 0 66 66;" xml:space="preserve"><path d="M44.6,54.75h-6.06v-2.51h3.26c0.41,0,0.75-0.34,0.75-0.75v-8.02c0-0.41-0.34-0.75-0.75-0.75h-3.04  c-0.41,0-0.75,0.34-0.75,0.75s0.34,0.75,0.75,0.75h2.29v6.52H16.58v-6.52h19.43c0.41,0,0.75-0.34,0.75-0.75s-0.34-0.75-0.75-0.75  H15.83c-0.41,0-0.75,0.34-0.75,0.75v8.02c0,0.41,0.34,0.75,0.75,0.75h3.26v2.51h-6.06c-0.41,0-0.75,0.34-0.75,0.75v4.01  c0,0.41,0.34,0.75,0.75,0.75h2.04v3.12c0,0.41,0.34,0.75,0.75,0.75h4.87c0.41,0,0.75-0.34,0.75-0.75v-3.12h14.75v3.12  c0,0.41,0.34,0.75,0.75,0.75h4.87c0.41,0,0.75-0.34,0.75-0.75v-3.12h2.04c0.41,0,0.75-0.34,0.75-0.75V55.5  C45.35,55.09,45.02,54.75,44.6,54.75z M37.05,52.24v2.51h-3.37v-2.51H37.05z M25.46,54.75v-2.51h6.72v2.51H25.46z M20.59,52.24h3.37  v2.51h-3.37V52.24z M19.94,62.63h-3.37v-2.37h3.37V62.63z M41.06,62.63h-3.37v-2.37h3.37V62.63z M43.85,58.76H13.78v-2.51h30.07  V58.76z"/><path d="M12.03,62.63h-1.26V43.31c0-1.82-1.29-3.33-3.01-3.68V29.3c2.27-0.36,4.01-2.32,4.01-4.69c0-2.63-2.14-4.76-4.76-4.76  s-4.76,2.14-4.76,4.76c0,2.37,1.74,4.32,4.01,4.69v10.33c-1.71,0.35-3.01,1.87-3.01,3.68v1.67c0,0.41,0.34,0.75,0.75,0.75  s0.75-0.34,0.75-0.75v-1.67c0-1.25,1.01-2.26,2.26-2.26c1.25,0,2.26,1.01,2.26,2.26v19.32H4.76V47.26c0-0.41-0.34-0.75-0.75-0.75  s-0.75,0.34-0.75,0.75v15.37H2c-0.41,0-0.75,0.34-0.75,0.75S1.59,64.13,2,64.13h10.03c0.41,0,0.75-0.34,0.75-0.75  S12.45,62.63,12.03,62.63z M3.75,24.61c0-1.8,1.46-3.26,3.26-3.26s3.26,1.46,3.26,3.26s-1.46,3.26-3.26,3.26S3.75,26.41,3.75,24.61z  "/><path d="M59.77,26.01c0.89-1.27,1.38-2.79,1.38-4.35c0-4.18-3.4-7.57-7.57-7.57S46,17.49,46,21.66c0,1.56,0.49,3.08,1.38,4.35  c-3.09,2.06-4.98,5.55-4.98,9.3c0,5.91,4.61,10.75,10.43,11.14v13.12c-1.03-1.12-2.5-1.83-4.14-1.83c-0.41,0-0.75,0.34-0.75,0.75  s0.34,0.75,0.75,0.75c2.03,0,3.71,1.46,4.06,3.39h-5.71c-0.41,0-0.75,0.34-0.75,0.75s0.34,0.75,0.75,0.75h13.08  c0.41,0,0.75-0.34,0.75-0.75s-0.34-0.75-0.75-0.75H54.4c0.35-1.92,2.04-3.39,4.06-3.39c0.41,0,0.75-0.34,0.75-0.75  s-0.34-0.75-0.75-0.75c-1.64,0-3.11,0.71-4.14,1.83V46.45c2.28-0.15,4.48-1,6.26-2.44c0.32-0.26,0.37-0.73,0.11-1.05  c-0.26-0.32-0.73-0.37-1.05-0.11c-1.54,1.24-3.37,1.96-5.32,2.11V41.9l4.22-4.22c0.29-0.29,0.29-0.77,0-1.06s-0.77-0.29-1.06,0  l-3.16,3.16v-4.29c0-0.41-0.34-0.75-0.75-0.75s-0.75,0.34-0.75,0.75v4.29l-3.16-3.16c-0.29-0.29-0.77-0.29-1.06,0s-0.29,0.77,0,1.06  l4.22,4.22v3.05c-4.99-0.39-8.93-4.56-8.93-9.64c0-3.5,1.9-6.73,4.96-8.45c0.2-0.11,0.34-0.31,0.37-0.53  c0.04-0.22-0.03-0.45-0.18-0.62c-1-1.12-1.55-2.55-1.55-4.04c0-3.35,2.72-6.07,6.07-6.07s6.07,2.72,6.07,6.07  c0,1.49-0.55,2.93-1.55,4.04c-0.15,0.17-0.22,0.4-0.18,0.62c0.04,0.22,0.18,0.42,0.37,0.53c3.06,1.71,4.96,4.95,4.96,8.45  c0,2.12-0.68,4.14-1.95,5.83c-0.25,0.33-0.18,0.8,0.15,1.05c0.33,0.25,0.8,0.18,1.05-0.15c1.48-1.95,2.26-4.28,2.26-6.74  C64.75,31.56,62.86,28.07,59.77,26.01z"/><path d="M23.58,20.6c2.13,0,4.17-1.02,5.44-2.74c0.25-0.33,0.18-0.8-0.16-1.05c-0.33-0.25-0.8-0.18-1.05,0.16  c-0.99,1.33-2.57,2.13-4.23,2.13c-2.91,0-5.27-2.36-5.27-5.27s2.36-5.27,5.27-5.27s5.27,2.36,5.27,5.27c0,0.51-0.07,1.02-0.22,1.5  c-0.12,0.4,0.11,0.81,0.51,0.93c0.4,0.12,0.81-0.11,0.93-0.51c0.18-0.62,0.28-1.27,0.28-1.93c0-3.73-3.04-6.77-6.77-6.77  s-6.77,3.04-6.77,6.77S19.84,20.6,23.58,20.6z"/><path d="M23.58,5.32c0.41,0,0.75-0.34,0.75-0.75V2.62c0-0.41-0.34-0.75-0.75-0.75s-0.75,0.34-0.75,0.75v1.95  C22.83,4.99,23.16,5.32,23.58,5.32z"/><path d="M22.83,23.08v1.95c0,0.41,0.34,0.75,0.75,0.75s0.75-0.34,0.75-0.75v-1.95c0-0.41-0.34-0.75-0.75-0.75  S22.83,22.66,22.83,23.08z"/><path d="M19.71,5.39c0.11,0.3,0.4,0.49,0.71,0.49c0.08,0,0.17-0.01,0.26-0.05c0.39-0.14,0.59-0.57,0.45-0.96l-0.67-1.83  c-0.14-0.39-0.57-0.59-0.96-0.45c-0.39,0.14-0.59,0.57-0.45,0.96L19.71,5.39z"/><path d="M26.49,21.81c-0.39,0.14-0.59,0.57-0.45,0.96l0.67,1.83c0.11,0.3,0.4,0.49,0.71,0.49c0.08,0,0.17-0.01,0.26-0.04  c0.39-0.14,0.59-0.57,0.45-0.96l-0.67-1.83C27.3,21.87,26.87,21.67,26.49,21.81z"/><path d="M17.05,7.22c0.15,0.18,0.36,0.27,0.57,0.27c0.17,0,0.34-0.06,0.48-0.18c0.32-0.27,0.36-0.74,0.09-1.06l-1.25-1.5  c-0.27-0.32-0.74-0.36-1.06-0.09c-0.32,0.27-0.36,0.74-0.09,1.06L17.05,7.22z"/><path d="M29.04,20.34c-0.32,0.27-0.36,0.74-0.09,1.06l1.25,1.5c0.15,0.18,0.36,0.27,0.57,0.27c0.17,0,0.34-0.06,0.48-0.18  c0.32-0.27,0.36-0.74,0.09-1.06l-1.25-1.5C29.83,20.11,29.36,20.07,29.04,20.34z"/><path d="M13.5,8.87l1.69,0.98c0.12,0.07,0.25,0.1,0.37,0.1c0.26,0,0.51-0.13,0.65-0.38c0.21-0.36,0.08-0.82-0.27-1.02l-1.69-0.98  c-0.36-0.21-0.82-0.08-1.02,0.27C13.02,8.21,13.14,8.66,13.5,8.87z"/><path d="M33.28,20.18c0.26,0,0.51-0.13,0.65-0.38c0.21-0.36,0.08-0.82-0.27-1.02l-1.69-0.98c-0.36-0.21-0.82-0.08-1.02,0.27  c-0.21,0.36-0.08,0.82,0.27,1.02l1.69,0.98C33.02,20.14,33.15,20.18,33.28,20.18z"/><path d="M12.41,12.62l1.92,0.34c0.04,0.01,0.09,0.01,0.13,0.01c0.36,0,0.67-0.26,0.74-0.62c0.07-0.41-0.2-0.8-0.61-0.87l-1.92-0.34  c-0.41-0.07-0.8,0.2-0.87,0.61C11.73,12.16,12,12.55,12.41,12.62z"/><path d="M34.61,16.52c0.36,0,0.67-0.26,0.74-0.62c0.07-0.41-0.2-0.8-0.61-0.87l-1.92-0.34c-0.41-0.07-0.8,0.2-0.87,0.61  c-0.07,0.41,0.2,0.8,0.61,0.87l1.92,0.34C34.52,16.52,34.57,16.52,34.61,16.52z"/><path d="M12.54,16.52c0.04,0,0.09,0,0.13-0.01l1.92-0.34c0.41-0.07,0.68-0.46,0.61-0.87c-0.07-0.41-0.46-0.68-0.87-0.61l-1.92,0.34  C12,15.1,11.73,15.49,11.8,15.9C11.87,16.26,12.18,16.52,12.54,16.52z"/><path d="M31.95,12.35c0.06,0.36,0.38,0.62,0.74,0.62c0.04,0,0.09,0,0.13-0.01l1.92-0.34c0.41-0.07,0.68-0.46,0.61-0.87  c-0.07-0.41-0.46-0.68-0.87-0.61l-1.92,0.34C32.15,11.55,31.88,11.94,31.95,12.35z"/><path d="M16.21,18.08c-0.21-0.36-0.66-0.48-1.02-0.27l-1.69,0.98c-0.36,0.21-0.48,0.67-0.27,1.02c0.14,0.24,0.39,0.38,0.65,0.38  c0.13,0,0.26-0.03,0.37-0.1l1.69-0.98C16.3,18.89,16.42,18.43,16.21,18.08z"/><path d="M30.94,9.57c0.14,0.24,0.39,0.38,0.65,0.38c0.13,0,0.26-0.03,0.37-0.1l1.69-0.98c0.36-0.21,0.48-0.67,0.27-1.02  c-0.21-0.36-0.66-0.48-1.02-0.27l-1.69,0.98C30.86,8.76,30.73,9.21,30.94,9.57z"/><path d="M16.37,23.16c0.21,0,0.43-0.09,0.57-0.27l1.25-1.5c0.27-0.32,0.23-0.79-0.09-1.06c-0.32-0.26-0.79-0.23-1.06,0.09l-1.25,1.5  c-0.27,0.32-0.23,0.79,0.09,1.06C16.03,23.1,16.2,23.16,16.37,23.16z"/><path d="M29.52,7.49c0.21,0,0.43-0.09,0.57-0.27l1.25-1.5c0.27-0.32,0.23-0.79-0.09-1.06c-0.32-0.27-0.79-0.23-1.06,0.09l-1.25,1.5  c-0.27,0.32-0.23,0.79,0.09,1.06C29.18,7.43,29.35,7.49,29.52,7.49z"/><path d="M19.71,22.26l-0.67,1.83c-0.14,0.39,0.06,0.82,0.45,0.96c0.08,0.03,0.17,0.05,0.26,0.05c0.31,0,0.59-0.19,0.71-0.49  l0.67-1.83c0.14-0.39-0.06-0.82-0.45-0.96C20.28,21.67,19.85,21.87,19.71,22.26z"/><path d="M26.49,5.84c0.08,0.03,0.17,0.04,0.26,0.04c0.31,0,0.59-0.19,0.71-0.49l0.67-1.83c0.14-0.39-0.06-0.82-0.45-0.96  c-0.39-0.14-0.82,0.06-0.96,0.45l-0.67,1.83C25.89,5.26,26.1,5.69,26.49,5.84z"/></svg>