<svg xmlns="http://www.w3.org/2000/svg" viewBox="0 0 64 80" x="0px" y="0px"><title>_</title><g data-name="Takeaway Food"><path d="M47.37109,23.34277a2.92039,2.92039,0,0,0-2.90039-2.79H41.3866c-.0185-.33892-.03583-.676-.05555-1.01611a1.5436,1.5436,0,0,1,.55274-1.271,8.6905,8.6905,0,0,0,2.82519-6.7212c0-4.38037-2.73046-7.94433-6.08593-7.94433s-6.08594,3.564-6.08594,7.94433a8.68987,8.68987,0,0,0,2.82715,6.72217,1.54057,1.54057,0,0,1,.55176,1.26807c-.01923.34173-.03638.67865-.05457,1.01806h-7.6214l-.01935-.29834a8.121,8.121,0,0,1,.11719-1.605.94256.94256,0,0,1,.47852-.62988,5.12056,5.12056,0,0,0,2.01269-1.95361,4.814,4.814,0,0,0,.623-2.70117V6.26416a2.66434,2.66434,0,0,0-2.69141-2.63037,2.70766,2.70766,0,0,0-1.80584.69311,2.70961,2.70961,0,0,0-3.17969.0188,2.70445,2.70445,0,0,0-1.78205-.67431,2.66519,2.66519,0,0,0-2.69238,2.63037l.00293,7.03027a4.90252,4.90252,0,0,0,.62109,2.77149,5.11455,5.11455,0,0,0,2.0127,1.95361,1.00148,1.00148,0,0,1,.49707.72168,4.99429,4.99429,0,0,1,.10352,1.4668l-.02491.30712H19.5293a2.89641,2.89641,0,0,0-2.89258,2.7085L12.08008,57.30908a2.97646,2.97646,0,0,0,.80957,2.19043,2.86091,2.86091,0,0,0,2.09082.90039H49.01953a2.86091,2.86091,0,0,0,2.09082-.90039,3.01,3.01,0,0,0,.80176-2.273ZM36.63574,16.72314a6.7865,6.7865,0,0,1-2.09863-5.17871c0-3.27783,1.833-5.94433,4.08594-5.94433S42.709,8.2666,42.709,11.54443a6.78847,6.78847,0,0,1-2.09668,5.17823A3.54817,3.54817,0,0,0,39.335,19.6499c.01758.303.03247.60163.04871.90283H37.8642c.01593-.3023.03076-.60174.04791-.90625A3.54287,3.54287,0,0,0,36.63574,16.72314Zm-12.26367,1.5542a2.93508,2.93508,0,0,0-1.47559-1.97509A3.07509,3.07509,0,0,1,21.665,15.11816a3.00282,3.00282,0,0,1-.36426-1.71582V6.30176a.6949.6949,0,0,1,1.38379,0v5.21191a1,1,0,0,0,2,0V6.43359a.697.697,0,0,1,1.38379,0v5.08008a1,1,0,0,0,2,0V6.26416a.6949.6949,0,0,1,1.38379,0l.00293,7.17334a2.90072,2.90072,0,0,1-.36621,1.64258,3.08231,3.08231,0,0,1-1.23145,1.18457,2.98709,2.98709,0,0,0-1.49512,2.06543,9.91484,9.91484,0,0,0-.13769,2.05664l.0108.166H24.5199l.01135-.14062A7.28735,7.28735,0,0,0,24.37207,18.27734ZM49.66113,58.12109a.87886.87886,0,0,1-.6416.27881H14.98047a.87886.87886,0,0,1-.6416-.27881.94078.94078,0,0,1-.26856-.6289L18.627,23.44531a.92108.92108,0,0,1,.90235-.89258H44.4707a.95121.95121,0,0,1,.91016.97413l4.541,33.88281A.95093.95093,0,0,1,49.66113,58.12109Z"/><path d="M32,41.9165a9.64084,9.64084,0,0,1-9.62988-9.62939v-4.4375a1,1,0,0,1,2,0v4.4375a7.62988,7.62988,0,0,0,15.25976,0v-4.4375a1,1,0,0,1,2,0v4.4375A9.64084,9.64084,0,0,1,32,41.9165Z"/></g></svg>